%FSLAX45Y45*%
G04 Gerber Fmt 4.5, Leading zero omitted, Abs format (unit mm)*
G04 Created by KiCad (PCBNEW (6.0.0)) date 2022-02-05 03:11:01*
%MOMM*%
%LPD*%
G01*
G04 APERTURE LIST*
%TA.AperFunction,Profile*%
%ADD10C,0.150000*%
%TD*%
%ADD11C,0.200000*%
G04 APERTURE END LIST*
D10*
X8450000Y-880000D02*
X8450000Y-11970000D01*
X4500000Y-880000D02*
X8450000Y-880000D01*
X8450000Y-11970000D02*
X4500000Y-11970000D01*
X4500000Y-880000D02*
X4500000Y-11970000D01*
D11*
X4750119Y-12287976D02*
X4750119Y-12087976D01*
X4797738Y-12087976D01*
X4826310Y-12097500D01*
X4845357Y-12116548D01*
X4854881Y-12135595D01*
X4864405Y-12173690D01*
X4864405Y-12202262D01*
X4854881Y-12240357D01*
X4845357Y-12259405D01*
X4826310Y-12278452D01*
X4797738Y-12287976D01*
X4750119Y-12287976D01*
X4950119Y-12287976D02*
X4950119Y-12154643D01*
X4950119Y-12192738D02*
X4959643Y-12173690D01*
X4969167Y-12164167D01*
X4988214Y-12154643D01*
X5007262Y-12154643D01*
X5073929Y-12287976D02*
X5073929Y-12154643D01*
X5073929Y-12087976D02*
X5064405Y-12097500D01*
X5073929Y-12107024D01*
X5083452Y-12097500D01*
X5073929Y-12087976D01*
X5073929Y-12107024D01*
X5197738Y-12287976D02*
X5178690Y-12278452D01*
X5169167Y-12259405D01*
X5169167Y-12087976D01*
X5302500Y-12287976D02*
X5283452Y-12278452D01*
X5273929Y-12259405D01*
X5273929Y-12087976D01*
X5531071Y-12287976D02*
X5531071Y-12087976D01*
X5597738Y-12230833D01*
X5664405Y-12087976D01*
X5664405Y-12287976D01*
X5845357Y-12287976D02*
X5845357Y-12183214D01*
X5835833Y-12164167D01*
X5816786Y-12154643D01*
X5778690Y-12154643D01*
X5759643Y-12164167D01*
X5845357Y-12278452D02*
X5826309Y-12287976D01*
X5778690Y-12287976D01*
X5759643Y-12278452D01*
X5750119Y-12259405D01*
X5750119Y-12240357D01*
X5759643Y-12221309D01*
X5778690Y-12211786D01*
X5826309Y-12211786D01*
X5845357Y-12202262D01*
X5940595Y-12154643D02*
X5940595Y-12354643D01*
X5940595Y-12164167D02*
X5959643Y-12154643D01*
X5997738Y-12154643D01*
X6016786Y-12164167D01*
X6026309Y-12173690D01*
X6035833Y-12192738D01*
X6035833Y-12249881D01*
X6026309Y-12268928D01*
X6016786Y-12278452D01*
X5997738Y-12287976D01*
X5959643Y-12287976D01*
X5940595Y-12278452D01*
X6121548Y-12268928D02*
X6131071Y-12278452D01*
X6121548Y-12287976D01*
X6112024Y-12278452D01*
X6121548Y-12268928D01*
X6121548Y-12287976D01*
X6121548Y-12164167D02*
X6131071Y-12173690D01*
X6121548Y-12183214D01*
X6112024Y-12173690D01*
X6121548Y-12164167D01*
X6121548Y-12183214D01*
M02*
