M48
; DRILL file {KiCad (6.0.0)} date Sat Feb  5 03:10:59 2022
; FORMAT={-:-/ absolute / metric / decimal}
; #@! TF.CreationDate,2022-02-05T03:10:59+01:00
; #@! TF.GenerationSoftware,Kicad,Pcbnew,(6.0.0)
; #@! TF.FileFunction,Plated,1,2,PTH
FMAT,2
METRIC
; #@! TA.AperFunction,Plated,PTH,ViaDrill
T1C0.400
; #@! TA.AperFunction,Plated,PTH,ComponentDrill
T2C0.800
; #@! TA.AperFunction,Plated,PTH,ComponentDrill
T3C1.000
; #@! TA.AperFunction,Plated,PTH,ComponentDrill
T4C1.600
; #@! TA.AperFunction,Plated,PTH,ComponentDrill
T5C1.800
%
G90
G05
T1
X45.675Y-34.4
X46.4Y-54.0
X48.7Y-36.3
X48.8Y-29.2
X48.8Y-34.2
X52.2Y-58.0
X52.5Y-30.5
X53.95Y-31.45
X54.6Y-33.0
X54.6Y-47.8
X54.675Y-29.0
X54.8Y-62.8
X55.6Y-52.8
X56.0Y-38.4
X56.8Y-88.8
X57.375Y-50.875
X57.6Y-34.6
X57.6Y-89.8
X58.2Y-31.6
X58.4Y-24.8
X58.6Y-33.0
X58.6Y-58.0
X58.863Y-50.337
X59.4Y-67.4
X59.443Y-68.757
X59.648Y-42.448
X59.8Y-46.4
X60.0Y-74.4
X60.4Y-47.2
X60.4Y-66.2
X60.725Y-32.2
X61.4Y-44.8
X61.4Y-69.8
X61.8Y-32.4
X61.8Y-52.8
X61.8Y-58.65
X62.0Y-45.8
X62.0Y-112.2
X62.15Y-50.3
X62.2Y-29.0
X62.2Y-96.4
X63.1Y-42.25
X63.1Y-65.0
X63.1Y-72.0
X63.3Y-88.0
X64.0Y-33.0
X64.05Y-37.2
X64.05Y-58.65
X64.2Y-42.2
X64.2Y-48.4
X64.25Y-93.5
X64.687Y-41.313
X64.875Y-89.2
X64.875Y-97.4
X65.6Y-60.6
X65.8Y-49.2
X66.325Y-86.6
X66.325Y-89.2
X67.2Y-55.4
X67.2Y-72.4
X67.6Y-29.0
X67.8Y-96.4
X68.8Y-64.2
X68.8Y-66.2
X68.8Y-79.0
X68.887Y-62.713
X69.0Y-42.2
X69.022Y-75.504
X69.85Y-43.688
X70.0Y-81.2
X70.225Y-57.2
X70.8Y-79.8
X70.8Y-86.4
X71.0Y-67.0
X71.75Y-103.8
X71.8Y-94.4
X73.2Y-59.6
X73.6Y-65.6
X74.0Y-26.8
X74.0Y-38.0
X74.0Y-40.8
X74.0Y-47.8
X74.125Y-72.3
X74.6Y-81.2
X75.2Y-32.4
X75.4Y-89.0
X75.55Y-61.0
X77.2Y-59.155
X77.5Y-74.8
X78.8Y-61.0
X79.2Y-54.0
X79.5Y-73.0
X79.75Y-29.25
X80.0Y-68.0
X80.8Y-52.1
X81.6Y-45.6
X81.8Y-32.8
X82.4Y-53.6
X82.4Y-72.6
X83.275Y-101.0
T2
X48.92Y-66.2
X51.46Y-66.2
X54.0Y-66.2
X55.5Y-116.5
X58.04Y-116.5
X60.58Y-116.5
X68.9Y-116.6
X71.44Y-116.6
X73.98Y-116.6
T3
X48.5Y-82.5
X50.5Y-55.46
X50.5Y-58.0
X50.5Y-60.54
X51.0Y-46.6
X51.0Y-82.5
X53.5Y-46.6
X53.5Y-82.5
X56.0Y-46.6
X62.0Y-79.5
X64.5Y-50.46
X64.5Y-53.0
X64.5Y-55.54
X64.5Y-79.5
X67.0Y-27.5
X67.0Y-79.5
X69.5Y-27.5
X71.84Y-11.4
X71.84Y-13.94
X72.0Y-27.5
X74.38Y-11.4
X74.38Y-13.94
X75.5Y-76.5
X76.92Y-11.4
X76.92Y-13.94
X78.0Y-76.5
X78.5Y-44.46
X78.5Y-47.0
X78.5Y-49.54
X79.46Y-11.4
X79.46Y-13.94
X80.5Y-76.5
X82.0Y-11.4
X82.0Y-13.94
T4
X50.0Y-88.08
X50.0Y-96.38
X50.0Y-99.48
X51.0Y-105.08
X51.0Y-113.38
X51.0Y-116.48
X60.0Y-88.08
X60.0Y-96.38
X60.0Y-99.48
X65.0Y-105.08
X65.0Y-113.38
X65.0Y-116.48
X70.0Y-88.08
X70.0Y-96.38
X70.0Y-99.48
X78.0Y-105.08
X78.0Y-113.38
X78.0Y-116.48
X80.0Y-88.08
X80.0Y-96.38
X80.0Y-99.48
T5
X46.174Y-74.4G85X46.174Y-75.6
G05
X48.674Y-38.5G85X48.674Y-39.7
G05
X55.8Y-74.4G85X55.8Y-75.6
G05
X58.3Y-38.5G85X58.3Y-39.7
G05
X59.674Y-71.4G85X59.674Y-72.6
G05
X64.674Y-19.4G85X64.674Y-20.6
G05
X69.3Y-71.4G85X69.3Y-72.6
G05
X73.174Y-68.4G85X73.174Y-69.6
G05
X74.3Y-19.4G85X74.3Y-20.6
G05
X82.8Y-68.4G85X82.8Y-69.6
G05
T0
M30
