%FSLAX45Y45*%
G04 Gerber Fmt 4.5, Leading zero omitted, Abs format (unit mm)*
G04 Created by KiCad (PCBNEW (6.0.0)) date 2022-01-27 02:03:40*
%MOMM*%
%LPD*%
G01*
G04 APERTURE LIST*
%TA.AperFunction,Profile*%
%ADD10C,0.150000*%
%TD*%
%ADD11C,0.200000*%
%ADD12C,0.040000*%
%ADD13C,0.080000*%
%ADD14C,0.100000*%
%ADD15C,0.160000*%
%ADD16C,0.180000*%
G04 APERTURE END LIST*
D10*
X8450000Y-880000D02*
X8450000Y-11970000D01*
X4500000Y-880000D02*
X8450000Y-880000D01*
X8450000Y-11970000D02*
X4500000Y-11970000D01*
X4500000Y-880000D02*
X4500000Y-11970000D01*
D11*
D12*
X4547500Y-3420000D02*
X4587500Y-3460000D01*
X4587500Y-3420000D02*
X4547500Y-3460000D01*
X4620000Y-5380000D02*
X4660000Y-5420000D01*
X4660000Y-5380000D02*
X4620000Y-5420000D01*
X4850000Y-3610000D02*
X4890000Y-3650000D01*
X4890000Y-3610000D02*
X4850000Y-3650000D01*
X4860000Y-2900000D02*
X4900000Y-2940000D01*
X4900000Y-2900000D02*
X4860000Y-2940000D01*
X4860000Y-3400000D02*
X4900000Y-3440000D01*
X4900000Y-3400000D02*
X4860000Y-3440000D01*
X5200000Y-5780000D02*
X5240000Y-5820000D01*
X5240000Y-5780000D02*
X5200000Y-5820000D01*
X5230000Y-3030000D02*
X5270000Y-3070000D01*
X5270000Y-3030000D02*
X5230000Y-3070000D01*
X5375000Y-3125000D02*
X5415000Y-3165000D01*
X5415000Y-3125000D02*
X5375000Y-3165000D01*
X5440000Y-3280000D02*
X5480000Y-3320000D01*
X5480000Y-3280000D02*
X5440000Y-3320000D01*
X5440000Y-4760000D02*
X5480000Y-4800000D01*
X5480000Y-4760000D02*
X5440000Y-4800000D01*
X5447500Y-2880000D02*
X5487500Y-2920000D01*
X5487500Y-2880000D02*
X5447500Y-2920000D01*
X5460000Y-6260000D02*
X5500000Y-6300000D01*
X5500000Y-6260000D02*
X5460000Y-6300000D01*
X5540000Y-5260000D02*
X5580000Y-5300000D01*
X5580000Y-5260000D02*
X5540000Y-5300000D01*
X5580000Y-3820000D02*
X5620000Y-3860000D01*
X5620000Y-3820000D02*
X5580000Y-3860000D01*
X5660000Y-8860000D02*
X5700000Y-8900000D01*
X5700000Y-8860000D02*
X5660000Y-8900000D01*
X5717500Y-5067500D02*
X5757500Y-5107500D01*
X5757500Y-5067500D02*
X5717500Y-5107500D01*
X5740000Y-3440000D02*
X5780000Y-3480000D01*
X5780000Y-3440000D02*
X5740000Y-3480000D01*
X5740000Y-8960000D02*
X5780000Y-9000000D01*
X5780000Y-8960000D02*
X5740000Y-9000000D01*
X5800000Y-3140000D02*
X5840000Y-3180000D01*
X5840000Y-3140000D02*
X5800000Y-3180000D01*
X5820000Y-2460000D02*
X5860000Y-2500000D01*
X5860000Y-2460000D02*
X5820000Y-2500000D01*
X5840000Y-3280000D02*
X5880000Y-3320000D01*
X5880000Y-3280000D02*
X5840000Y-3320000D01*
X5840000Y-5780000D02*
X5880000Y-5820000D01*
X5880000Y-5780000D02*
X5840000Y-5820000D01*
X5866265Y-5013735D02*
X5906265Y-5053735D01*
X5906265Y-5013735D02*
X5866265Y-5053735D01*
X5920000Y-6720000D02*
X5960000Y-6760000D01*
X5960000Y-6720000D02*
X5920000Y-6760000D01*
X5924315Y-6855685D02*
X5964315Y-6895685D01*
X5964315Y-6855685D02*
X5924315Y-6895685D01*
X5944791Y-4224791D02*
X5984791Y-4264791D01*
X5984791Y-4224791D02*
X5944791Y-4264791D01*
X5960000Y-4620000D02*
X6000000Y-4660000D01*
X6000000Y-4620000D02*
X5960000Y-4660000D01*
X5980000Y-7420000D02*
X6020000Y-7460000D01*
X6020000Y-7420000D02*
X5980000Y-7460000D01*
X6020000Y-4700000D02*
X6060000Y-4740000D01*
X6060000Y-4700000D02*
X6020000Y-4740000D01*
X6020000Y-6600000D02*
X6060000Y-6640000D01*
X6060000Y-6600000D02*
X6020000Y-6640000D01*
X6052500Y-3200000D02*
X6092500Y-3240000D01*
X6092500Y-3200000D02*
X6052500Y-3240000D01*
X6120000Y-4460000D02*
X6160000Y-4500000D01*
X6160000Y-4460000D02*
X6120000Y-4500000D01*
X6120000Y-6960000D02*
X6160000Y-7000000D01*
X6160000Y-6960000D02*
X6120000Y-7000000D01*
X6160000Y-3220000D02*
X6200000Y-3260000D01*
X6200000Y-3220000D02*
X6160000Y-3260000D01*
X6160000Y-5260000D02*
X6200000Y-5300000D01*
X6200000Y-5260000D02*
X6160000Y-5300000D01*
X6160000Y-5845000D02*
X6200000Y-5885000D01*
X6200000Y-5845000D02*
X6160000Y-5885000D01*
X6180000Y-4560000D02*
X6220000Y-4600000D01*
X6220000Y-4560000D02*
X6180000Y-4600000D01*
X6180000Y-11200000D02*
X6220000Y-11240000D01*
X6220000Y-11200000D02*
X6180000Y-11240000D01*
X6195000Y-5010000D02*
X6235000Y-5050000D01*
X6235000Y-5010000D02*
X6195000Y-5050000D01*
X6200000Y-2880000D02*
X6240000Y-2920000D01*
X6240000Y-2880000D02*
X6200000Y-2920000D01*
X6200000Y-9620000D02*
X6240000Y-9660000D01*
X6240000Y-9620000D02*
X6200000Y-9660000D01*
X6290000Y-4205000D02*
X6330000Y-4245000D01*
X6330000Y-4205000D02*
X6290000Y-4245000D01*
X6290000Y-6480000D02*
X6330000Y-6520000D01*
X6330000Y-6480000D02*
X6290000Y-6520000D01*
X6290000Y-7180000D02*
X6330000Y-7220000D01*
X6330000Y-7180000D02*
X6290000Y-7220000D01*
X6310000Y-8780000D02*
X6350000Y-8820000D01*
X6350000Y-8780000D02*
X6310000Y-8820000D01*
X6380000Y-3280000D02*
X6420000Y-3320000D01*
X6420000Y-3280000D02*
X6380000Y-3320000D01*
X6385000Y-3700000D02*
X6425000Y-3740000D01*
X6425000Y-3700000D02*
X6385000Y-3740000D01*
X6385000Y-5845000D02*
X6425000Y-5885000D01*
X6425000Y-5845000D02*
X6385000Y-5885000D01*
X6400000Y-4200000D02*
X6440000Y-4240000D01*
X6440000Y-4200000D02*
X6400000Y-4240000D01*
X6400000Y-4820000D02*
X6440000Y-4860000D01*
X6440000Y-4820000D02*
X6400000Y-4860000D01*
X6405000Y-9330000D02*
X6445000Y-9370000D01*
X6445000Y-9330000D02*
X6405000Y-9370000D01*
X6448735Y-4111265D02*
X6488735Y-4151265D01*
X6488735Y-4111265D02*
X6448735Y-4151265D01*
X6467500Y-8900000D02*
X6507500Y-8940000D01*
X6507500Y-8900000D02*
X6467500Y-8940000D01*
X6467500Y-9720000D02*
X6507500Y-9760000D01*
X6507500Y-9720000D02*
X6467500Y-9760000D01*
X6540000Y-6040000D02*
X6580000Y-6080000D01*
X6580000Y-6040000D02*
X6540000Y-6080000D01*
X6560000Y-4900000D02*
X6600000Y-4940000D01*
X6600000Y-4900000D02*
X6560000Y-4940000D01*
X6612500Y-8640000D02*
X6652500Y-8680000D01*
X6652500Y-8640000D02*
X6612500Y-8680000D01*
X6612500Y-8900000D02*
X6652500Y-8940000D01*
X6652500Y-8900000D02*
X6612500Y-8940000D01*
X6700000Y-5520000D02*
X6740000Y-5560000D01*
X6740000Y-5520000D02*
X6700000Y-5560000D01*
X6700000Y-7220000D02*
X6740000Y-7260000D01*
X6740000Y-7220000D02*
X6700000Y-7260000D01*
X6740000Y-2880000D02*
X6780000Y-2920000D01*
X6780000Y-2880000D02*
X6740000Y-2920000D01*
X6760000Y-9620000D02*
X6800000Y-9660000D01*
X6800000Y-9620000D02*
X6760000Y-9660000D01*
X6860000Y-6400000D02*
X6900000Y-6440000D01*
X6900000Y-6400000D02*
X6860000Y-6440000D01*
X6860000Y-6600000D02*
X6900000Y-6640000D01*
X6900000Y-6600000D02*
X6860000Y-6640000D01*
X6860000Y-7880000D02*
X6900000Y-7920000D01*
X6900000Y-7880000D02*
X6860000Y-7920000D01*
X6868735Y-6251265D02*
X6908735Y-6291265D01*
X6908735Y-6251265D02*
X6868735Y-6291265D01*
X6880000Y-4200000D02*
X6920000Y-4240000D01*
X6920000Y-4200000D02*
X6880000Y-4240000D01*
X6882200Y-7530400D02*
X6922200Y-7570400D01*
X6922200Y-7530400D02*
X6882200Y-7570400D01*
X6965000Y-4348800D02*
X7005000Y-4388800D01*
X7005000Y-4348800D02*
X6965000Y-4388800D01*
X6980000Y-8100000D02*
X7020000Y-8140000D01*
X7020000Y-8100000D02*
X6980000Y-8140000D01*
X7002500Y-5700000D02*
X7042500Y-5740000D01*
X7042500Y-5700000D02*
X7002500Y-5740000D01*
X7060000Y-7960000D02*
X7100000Y-8000000D01*
X7100000Y-7960000D02*
X7060000Y-8000000D01*
X7060000Y-8620000D02*
X7100000Y-8660000D01*
X7100000Y-8620000D02*
X7060000Y-8660000D01*
X7080000Y-6680000D02*
X7120000Y-6720000D01*
X7120000Y-6680000D02*
X7080000Y-6720000D01*
X7155000Y-10360000D02*
X7195000Y-10400000D01*
X7195000Y-10360000D02*
X7155000Y-10400000D01*
X7160000Y-9420000D02*
X7200000Y-9460000D01*
X7200000Y-9420000D02*
X7160000Y-9460000D01*
X7300000Y-5940000D02*
X7340000Y-5980000D01*
X7340000Y-5940000D02*
X7300000Y-5980000D01*
X7340000Y-6540000D02*
X7380000Y-6580000D01*
X7380000Y-6540000D02*
X7340000Y-6580000D01*
X7380000Y-2660000D02*
X7420000Y-2700000D01*
X7420000Y-2660000D02*
X7380000Y-2700000D01*
X7380000Y-3780000D02*
X7420000Y-3820000D01*
X7420000Y-3780000D02*
X7380000Y-3820000D01*
X7380000Y-4060000D02*
X7420000Y-4100000D01*
X7420000Y-4060000D02*
X7380000Y-4100000D01*
X7380000Y-4760000D02*
X7420000Y-4800000D01*
X7420000Y-4760000D02*
X7380000Y-4800000D01*
X7392500Y-7210000D02*
X7432500Y-7250000D01*
X7432500Y-7210000D02*
X7392500Y-7250000D01*
X7440000Y-8100000D02*
X7480000Y-8140000D01*
X7480000Y-8100000D02*
X7440000Y-8140000D01*
X7500000Y-3220000D02*
X7540000Y-3260000D01*
X7540000Y-3220000D02*
X7500000Y-3260000D01*
X7520000Y-8880000D02*
X7560000Y-8920000D01*
X7560000Y-8880000D02*
X7520000Y-8920000D01*
X7535000Y-6080000D02*
X7575000Y-6120000D01*
X7575000Y-6080000D02*
X7535000Y-6120000D01*
X7700000Y-5895500D02*
X7740000Y-5935500D01*
X7740000Y-5895500D02*
X7700000Y-5935500D01*
X7730000Y-7460000D02*
X7770000Y-7500000D01*
X7770000Y-7460000D02*
X7730000Y-7500000D01*
X7860000Y-6080000D02*
X7900000Y-6120000D01*
X7900000Y-6080000D02*
X7860000Y-6120000D01*
X7900000Y-5380000D02*
X7940000Y-5420000D01*
X7940000Y-5380000D02*
X7900000Y-5420000D01*
X7930000Y-7280000D02*
X7970000Y-7320000D01*
X7970000Y-7280000D02*
X7930000Y-7320000D01*
X7955000Y-2905000D02*
X7995000Y-2945000D01*
X7995000Y-2905000D02*
X7955000Y-2945000D01*
X7980000Y-6780000D02*
X8020000Y-6820000D01*
X8020000Y-6780000D02*
X7980000Y-6820000D01*
X8060000Y-5190000D02*
X8100000Y-5230000D01*
X8100000Y-5190000D02*
X8060000Y-5230000D01*
X8140000Y-4540000D02*
X8180000Y-4580000D01*
X8180000Y-4540000D02*
X8140000Y-4580000D01*
X8160000Y-3260000D02*
X8200000Y-3300000D01*
X8200000Y-3260000D02*
X8160000Y-3300000D01*
X8220000Y-5340000D02*
X8260000Y-5380000D01*
X8260000Y-5340000D02*
X8220000Y-5380000D01*
X8220000Y-7240000D02*
X8260000Y-7280000D01*
X8260000Y-7240000D02*
X8220000Y-7280000D01*
X8307500Y-10080000D02*
X8347500Y-10120000D01*
X8347500Y-10080000D02*
X8307500Y-10120000D01*
D13*
X4932000Y-6620000D02*
G75*
G03*
X4932000Y-6620000I-40000J0D01*
G01*
X5186000Y-6620000D02*
G75*
G03*
X5186000Y-6620000I-40000J0D01*
G01*
X5440000Y-6620000D02*
G75*
G03*
X5440000Y-6620000I-40000J0D01*
G01*
X5590000Y-11650000D02*
G75*
G03*
X5590000Y-11650000I-40000J0D01*
G01*
X5844000Y-11650000D02*
G75*
G03*
X5844000Y-11650000I-40000J0D01*
G01*
X6098000Y-11650000D02*
G75*
G03*
X6098000Y-11650000I-40000J0D01*
G01*
X6930000Y-11660000D02*
G75*
G03*
X6930000Y-11660000I-40000J0D01*
G01*
X7184000Y-11660000D02*
G75*
G03*
X7184000Y-11660000I-40000J0D01*
G01*
X7438000Y-11660000D02*
G75*
G03*
X7438000Y-11660000I-40000J0D01*
G01*
D14*
X4850000Y-8200000D02*
X4850000Y-8300000D01*
X4800000Y-8250000D02*
X4900000Y-8250000D01*
X5050000Y-5496000D02*
X5050000Y-5596000D01*
X5000000Y-5546000D02*
X5100000Y-5546000D01*
X5050000Y-5750000D02*
X5050000Y-5850000D01*
X5000000Y-5800000D02*
X5100000Y-5800000D01*
X5050000Y-6004000D02*
X5050000Y-6104000D01*
X5000000Y-6054000D02*
X5100000Y-6054000D01*
X5100000Y-4610000D02*
X5100000Y-4710000D01*
X5050000Y-4660000D02*
X5150000Y-4660000D01*
X5100000Y-8200000D02*
X5100000Y-8300000D01*
X5050000Y-8250000D02*
X5150000Y-8250000D01*
X5350000Y-4610000D02*
X5350000Y-4710000D01*
X5300000Y-4660000D02*
X5400000Y-4660000D01*
X5350000Y-8200000D02*
X5350000Y-8300000D01*
X5300000Y-8250000D02*
X5400000Y-8250000D01*
X5600000Y-4610000D02*
X5600000Y-4710000D01*
X5550000Y-4660000D02*
X5650000Y-4660000D01*
X6200000Y-7900000D02*
X6200000Y-8000000D01*
X6150000Y-7950000D02*
X6250000Y-7950000D01*
X6450000Y-4996000D02*
X6450000Y-5096000D01*
X6400000Y-5046000D02*
X6500000Y-5046000D01*
X6450000Y-5250000D02*
X6450000Y-5350000D01*
X6400000Y-5300000D02*
X6500000Y-5300000D01*
X6450000Y-5504000D02*
X6450000Y-5604000D01*
X6400000Y-5554000D02*
X6500000Y-5554000D01*
X6450000Y-7900000D02*
X6450000Y-8000000D01*
X6400000Y-7950000D02*
X6500000Y-7950000D01*
X6700000Y-2700000D02*
X6700000Y-2800000D01*
X6650000Y-2750000D02*
X6750000Y-2750000D01*
X6700000Y-7900000D02*
X6700000Y-8000000D01*
X6650000Y-7950000D02*
X6750000Y-7950000D01*
X6950000Y-2700000D02*
X6950000Y-2800000D01*
X6900000Y-2750000D02*
X7000000Y-2750000D01*
X7184000Y-1090000D02*
X7184000Y-1190000D01*
X7134000Y-1140000D02*
X7234000Y-1140000D01*
X7184000Y-1344000D02*
X7184000Y-1444000D01*
X7134000Y-1394000D02*
X7234000Y-1394000D01*
X7200000Y-2700000D02*
X7200000Y-2800000D01*
X7150000Y-2750000D02*
X7250000Y-2750000D01*
X7438000Y-1090000D02*
X7438000Y-1190000D01*
X7388000Y-1140000D02*
X7488000Y-1140000D01*
X7438000Y-1344000D02*
X7438000Y-1444000D01*
X7388000Y-1394000D02*
X7488000Y-1394000D01*
X7550000Y-7600000D02*
X7550000Y-7700000D01*
X7500000Y-7650000D02*
X7600000Y-7650000D01*
X7692000Y-1090000D02*
X7692000Y-1190000D01*
X7642000Y-1140000D02*
X7742000Y-1140000D01*
X7692000Y-1344000D02*
X7692000Y-1444000D01*
X7642000Y-1394000D02*
X7742000Y-1394000D01*
X7800000Y-7600000D02*
X7800000Y-7700000D01*
X7750000Y-7650000D02*
X7850000Y-7650000D01*
X7850000Y-4396000D02*
X7850000Y-4496000D01*
X7800000Y-4446000D02*
X7900000Y-4446000D01*
X7850000Y-4650000D02*
X7850000Y-4750000D01*
X7800000Y-4700000D02*
X7900000Y-4700000D01*
X7850000Y-4904000D02*
X7850000Y-5004000D01*
X7800000Y-4954000D02*
X7900000Y-4954000D01*
X7946000Y-1090000D02*
X7946000Y-1190000D01*
X7896000Y-1140000D02*
X7996000Y-1140000D01*
X7946000Y-1344000D02*
X7946000Y-1444000D01*
X7896000Y-1394000D02*
X7996000Y-1394000D01*
X8050000Y-7600000D02*
X8050000Y-7700000D01*
X8000000Y-7650000D02*
X8100000Y-7650000D01*
X8200000Y-1090000D02*
X8200000Y-1190000D01*
X8150000Y-1140000D02*
X8250000Y-1140000D01*
X8200000Y-1344000D02*
X8200000Y-1444000D01*
X8150000Y-1394000D02*
X8250000Y-1394000D01*
D15*
X5056569Y-8864569D02*
X5056569Y-8751431D01*
X4943431Y-8751431D01*
X4943431Y-8864569D01*
X5056569Y-8864569D01*
X5056569Y-9694569D02*
X5056569Y-9581431D01*
X4943431Y-9581431D01*
X4943431Y-9694569D01*
X5056569Y-9694569D01*
X5056569Y-10004569D02*
X5056569Y-9891431D01*
X4943431Y-9891431D01*
X4943431Y-10004569D01*
X5056569Y-10004569D01*
X5156569Y-10564569D02*
X5156569Y-10451431D01*
X5043431Y-10451431D01*
X5043431Y-10564569D01*
X5156569Y-10564569D01*
X5156569Y-11394569D02*
X5156569Y-11281431D01*
X5043431Y-11281431D01*
X5043431Y-11394569D01*
X5156569Y-11394569D01*
X5156569Y-11704569D02*
X5156569Y-11591431D01*
X5043431Y-11591431D01*
X5043431Y-11704569D01*
X5156569Y-11704569D01*
X6056569Y-8864569D02*
X6056569Y-8751431D01*
X5943431Y-8751431D01*
X5943431Y-8864569D01*
X6056569Y-8864569D01*
X6056569Y-9694569D02*
X6056569Y-9581431D01*
X5943431Y-9581431D01*
X5943431Y-9694569D01*
X6056569Y-9694569D01*
X6056569Y-10004569D02*
X6056569Y-9891431D01*
X5943431Y-9891431D01*
X5943431Y-10004569D01*
X6056569Y-10004569D01*
X6556569Y-10564569D02*
X6556569Y-10451431D01*
X6443431Y-10451431D01*
X6443431Y-10564569D01*
X6556569Y-10564569D01*
X6556569Y-11394569D02*
X6556569Y-11281431D01*
X6443431Y-11281431D01*
X6443431Y-11394569D01*
X6556569Y-11394569D01*
X6556569Y-11704569D02*
X6556569Y-11591431D01*
X6443431Y-11591431D01*
X6443431Y-11704569D01*
X6556569Y-11704569D01*
X7056569Y-8864569D02*
X7056569Y-8751431D01*
X6943431Y-8751431D01*
X6943431Y-8864569D01*
X7056569Y-8864569D01*
X7056569Y-9694569D02*
X7056569Y-9581431D01*
X6943431Y-9581431D01*
X6943431Y-9694569D01*
X7056569Y-9694569D01*
X7056569Y-10004569D02*
X7056569Y-9891431D01*
X6943431Y-9891431D01*
X6943431Y-10004569D01*
X7056569Y-10004569D01*
X7856569Y-10564569D02*
X7856569Y-10451431D01*
X7743431Y-10451431D01*
X7743431Y-10564569D01*
X7856569Y-10564569D01*
X7856569Y-11394569D02*
X7856569Y-11281431D01*
X7743431Y-11281431D01*
X7743431Y-11394569D01*
X7856569Y-11394569D01*
X7856569Y-11704569D02*
X7856569Y-11591431D01*
X7743431Y-11591431D01*
X7743431Y-11704569D01*
X7856569Y-11704569D01*
X8056569Y-8864569D02*
X8056569Y-8751431D01*
X7943431Y-8751431D01*
X7943431Y-8864569D01*
X8056569Y-8864569D01*
X8056569Y-9694569D02*
X8056569Y-9581431D01*
X7943431Y-9581431D01*
X7943431Y-9694569D01*
X8056569Y-9694569D01*
X8056569Y-10004569D02*
X8056569Y-9891431D01*
X7943431Y-9891431D01*
X7943431Y-10004569D01*
X8056569Y-10004569D01*
D16*
X4617400Y-7590000D02*
X4707400Y-7500000D01*
X4617400Y-7410000D01*
X4527400Y-7500000D01*
X4617400Y-7590000D01*
D11*
X4537400Y-7440000D02*
X4537400Y-7560000D01*
X4697400Y-7440000D02*
X4697400Y-7560000D01*
X4537400Y-7560000D02*
G75*
G03*
X4697400Y-7560000I80000J0D01*
G01*
X4697400Y-7440000D02*
G75*
G03*
X4537400Y-7440000I-80000J0D01*
G01*
D16*
X4867400Y-4000000D02*
X4957400Y-3910000D01*
X4867400Y-3820000D01*
X4777400Y-3910000D01*
X4867400Y-4000000D01*
D11*
X4787400Y-3850000D02*
X4787400Y-3970000D01*
X4947400Y-3850000D02*
X4947400Y-3970000D01*
X4787400Y-3970000D02*
G75*
G03*
X4947400Y-3970000I80000J0D01*
G01*
X4947400Y-3850000D02*
G75*
G03*
X4787400Y-3850000I-80000J0D01*
G01*
D16*
X5580000Y-7590000D02*
X5670000Y-7500000D01*
X5580000Y-7410000D01*
X5490000Y-7500000D01*
X5580000Y-7590000D01*
D11*
X5500000Y-7440000D02*
X5500000Y-7560000D01*
X5660000Y-7440000D02*
X5660000Y-7560000D01*
X5500000Y-7560000D02*
G75*
G03*
X5660000Y-7560000I80000J0D01*
G01*
X5660000Y-7440000D02*
G75*
G03*
X5500000Y-7440000I-80000J0D01*
G01*
D16*
X5830000Y-4000000D02*
X5920000Y-3910000D01*
X5830000Y-3820000D01*
X5740000Y-3910000D01*
X5830000Y-4000000D01*
D11*
X5750000Y-3850000D02*
X5750000Y-3970000D01*
X5910000Y-3850000D02*
X5910000Y-3970000D01*
X5750000Y-3970000D02*
G75*
G03*
X5910000Y-3970000I80000J0D01*
G01*
X5910000Y-3850000D02*
G75*
G03*
X5750000Y-3850000I-80000J0D01*
G01*
D16*
X5967400Y-7290000D02*
X6057400Y-7200000D01*
X5967400Y-7110000D01*
X5877400Y-7200000D01*
X5967400Y-7290000D01*
D11*
X5887400Y-7140000D02*
X5887400Y-7260000D01*
X6047400Y-7140000D02*
X6047400Y-7260000D01*
X5887400Y-7260000D02*
G75*
G03*
X6047400Y-7260000I80000J0D01*
G01*
X6047400Y-7140000D02*
G75*
G03*
X5887400Y-7140000I-80000J0D01*
G01*
D16*
X6467400Y-2090000D02*
X6557400Y-2000000D01*
X6467400Y-1910000D01*
X6377400Y-2000000D01*
X6467400Y-2090000D01*
D11*
X6387400Y-1940000D02*
X6387400Y-2060000D01*
X6547400Y-1940000D02*
X6547400Y-2060000D01*
X6387400Y-2060000D02*
G75*
G03*
X6547400Y-2060000I80000J0D01*
G01*
X6547400Y-1940000D02*
G75*
G03*
X6387400Y-1940000I-80000J0D01*
G01*
D16*
X6930000Y-7290000D02*
X7020000Y-7200000D01*
X6930000Y-7110000D01*
X6840000Y-7200000D01*
X6930000Y-7290000D01*
D11*
X6850000Y-7140000D02*
X6850000Y-7260000D01*
X7010000Y-7140000D02*
X7010000Y-7260000D01*
X6850000Y-7260000D02*
G75*
G03*
X7010000Y-7260000I80000J0D01*
G01*
X7010000Y-7140000D02*
G75*
G03*
X6850000Y-7140000I-80000J0D01*
G01*
D16*
X7317400Y-6990000D02*
X7407400Y-6900000D01*
X7317400Y-6810000D01*
X7227400Y-6900000D01*
X7317400Y-6990000D01*
D11*
X7237400Y-6840000D02*
X7237400Y-6960000D01*
X7397400Y-6840000D02*
X7397400Y-6960000D01*
X7237400Y-6960000D02*
G75*
G03*
X7397400Y-6960000I80000J0D01*
G01*
X7397400Y-6840000D02*
G75*
G03*
X7237400Y-6840000I-80000J0D01*
G01*
D16*
X7430000Y-2090000D02*
X7520000Y-2000000D01*
X7430000Y-1910000D01*
X7340000Y-2000000D01*
X7430000Y-2090000D01*
D11*
X7350000Y-1940000D02*
X7350000Y-2060000D01*
X7510000Y-1940000D02*
X7510000Y-2060000D01*
X7350000Y-2060000D02*
G75*
G03*
X7510000Y-2060000I80000J0D01*
G01*
X7510000Y-1940000D02*
G75*
G03*
X7350000Y-1940000I-80000J0D01*
G01*
D16*
X8280000Y-6990000D02*
X8370000Y-6900000D01*
X8280000Y-6810000D01*
X8190000Y-6900000D01*
X8280000Y-6990000D01*
D11*
X8200000Y-6840000D02*
X8200000Y-6960000D01*
X8360000Y-6840000D02*
X8360000Y-6960000D01*
X8200000Y-6960000D02*
G75*
G03*
X8360000Y-6960000I80000J0D01*
G01*
X8360000Y-6840000D02*
G75*
G03*
X8200000Y-6840000I-80000J0D01*
G01*
X4750119Y-12287976D02*
X4750119Y-12087976D01*
X4797738Y-12087976D01*
X4826310Y-12097500D01*
X4845357Y-12116548D01*
X4854881Y-12135595D01*
X4864405Y-12173690D01*
X4864405Y-12202262D01*
X4854881Y-12240357D01*
X4845357Y-12259405D01*
X4826310Y-12278452D01*
X4797738Y-12287976D01*
X4750119Y-12287976D01*
X4950119Y-12287976D02*
X4950119Y-12154643D01*
X4950119Y-12192738D02*
X4959643Y-12173690D01*
X4969167Y-12164167D01*
X4988214Y-12154643D01*
X5007262Y-12154643D01*
X5073929Y-12287976D02*
X5073929Y-12154643D01*
X5073929Y-12087976D02*
X5064405Y-12097500D01*
X5073929Y-12107024D01*
X5083452Y-12097500D01*
X5073929Y-12087976D01*
X5073929Y-12107024D01*
X5197738Y-12287976D02*
X5178690Y-12278452D01*
X5169167Y-12259405D01*
X5169167Y-12087976D01*
X5302500Y-12287976D02*
X5283452Y-12278452D01*
X5273929Y-12259405D01*
X5273929Y-12087976D01*
X5531071Y-12287976D02*
X5531071Y-12087976D01*
X5597738Y-12230833D01*
X5664405Y-12087976D01*
X5664405Y-12287976D01*
X5845357Y-12287976D02*
X5845357Y-12183214D01*
X5835833Y-12164167D01*
X5816786Y-12154643D01*
X5778690Y-12154643D01*
X5759643Y-12164167D01*
X5845357Y-12278452D02*
X5826309Y-12287976D01*
X5778690Y-12287976D01*
X5759643Y-12278452D01*
X5750119Y-12259405D01*
X5750119Y-12240357D01*
X5759643Y-12221309D01*
X5778690Y-12211786D01*
X5826309Y-12211786D01*
X5845357Y-12202262D01*
X5940595Y-12154643D02*
X5940595Y-12354643D01*
X5940595Y-12164167D02*
X5959643Y-12154643D01*
X5997738Y-12154643D01*
X6016786Y-12164167D01*
X6026309Y-12173690D01*
X6035833Y-12192738D01*
X6035833Y-12249881D01*
X6026309Y-12268928D01*
X6016786Y-12278452D01*
X5997738Y-12287976D01*
X5959643Y-12287976D01*
X5940595Y-12278452D01*
X6121548Y-12268928D02*
X6131071Y-12278452D01*
X6121548Y-12287976D01*
X6112024Y-12278452D01*
X6121548Y-12268928D01*
X6121548Y-12287976D01*
X6121548Y-12164167D02*
X6131071Y-12173690D01*
X6121548Y-12183214D01*
X6112024Y-12173690D01*
X6121548Y-12164167D01*
X6121548Y-12183214D01*
D12*
X4452500Y-12597500D02*
X4492500Y-12637500D01*
X4492500Y-12597500D02*
X4452500Y-12637500D01*
D11*
X4788214Y-12507976D02*
X4807262Y-12507976D01*
X4826310Y-12517500D01*
X4835833Y-12527024D01*
X4845357Y-12546071D01*
X4854881Y-12584167D01*
X4854881Y-12631786D01*
X4845357Y-12669881D01*
X4835833Y-12688928D01*
X4826310Y-12698452D01*
X4807262Y-12707976D01*
X4788214Y-12707976D01*
X4769167Y-12698452D01*
X4759643Y-12688928D01*
X4750119Y-12669881D01*
X4740595Y-12631786D01*
X4740595Y-12584167D01*
X4750119Y-12546071D01*
X4759643Y-12527024D01*
X4769167Y-12517500D01*
X4788214Y-12507976D01*
X4940595Y-12688928D02*
X4950119Y-12698452D01*
X4940595Y-12707976D01*
X4931071Y-12698452D01*
X4940595Y-12688928D01*
X4940595Y-12707976D01*
X5121548Y-12574643D02*
X5121548Y-12707976D01*
X5073929Y-12498452D02*
X5026310Y-12641309D01*
X5150119Y-12641309D01*
X5264405Y-12507976D02*
X5283452Y-12507976D01*
X5302500Y-12517500D01*
X5312024Y-12527024D01*
X5321548Y-12546071D01*
X5331071Y-12584167D01*
X5331071Y-12631786D01*
X5321548Y-12669881D01*
X5312024Y-12688928D01*
X5302500Y-12698452D01*
X5283452Y-12707976D01*
X5264405Y-12707976D01*
X5245357Y-12698452D01*
X5235833Y-12688928D01*
X5226310Y-12669881D01*
X5216786Y-12631786D01*
X5216786Y-12584167D01*
X5226310Y-12546071D01*
X5235833Y-12527024D01*
X5245357Y-12517500D01*
X5264405Y-12507976D01*
X5454881Y-12507976D02*
X5473929Y-12507976D01*
X5492976Y-12517500D01*
X5502500Y-12527024D01*
X5512024Y-12546071D01*
X5521548Y-12584167D01*
X5521548Y-12631786D01*
X5512024Y-12669881D01*
X5502500Y-12688928D01*
X5492976Y-12698452D01*
X5473929Y-12707976D01*
X5454881Y-12707976D01*
X5435833Y-12698452D01*
X5426310Y-12688928D01*
X5416786Y-12669881D01*
X5407262Y-12631786D01*
X5407262Y-12584167D01*
X5416786Y-12546071D01*
X5426310Y-12527024D01*
X5435833Y-12517500D01*
X5454881Y-12507976D01*
X5607262Y-12707976D02*
X5607262Y-12574643D01*
X5607262Y-12593690D02*
X5616786Y-12584167D01*
X5635833Y-12574643D01*
X5664405Y-12574643D01*
X5683452Y-12584167D01*
X5692976Y-12603214D01*
X5692976Y-12707976D01*
X5692976Y-12603214D02*
X5702500Y-12584167D01*
X5721548Y-12574643D01*
X5750119Y-12574643D01*
X5769167Y-12584167D01*
X5778690Y-12603214D01*
X5778690Y-12707976D01*
X5873928Y-12707976D02*
X5873928Y-12574643D01*
X5873928Y-12593690D02*
X5883452Y-12584167D01*
X5902500Y-12574643D01*
X5931071Y-12574643D01*
X5950119Y-12584167D01*
X5959643Y-12603214D01*
X5959643Y-12707976D01*
X5959643Y-12603214D02*
X5969167Y-12584167D01*
X5988214Y-12574643D01*
X6016786Y-12574643D01*
X6035833Y-12584167D01*
X6045357Y-12603214D01*
X6045357Y-12707976D01*
X6435833Y-12498452D02*
X6264405Y-12755595D01*
X6692976Y-12507976D02*
X6712024Y-12507976D01*
X6731071Y-12517500D01*
X6740595Y-12527024D01*
X6750119Y-12546071D01*
X6759643Y-12584167D01*
X6759643Y-12631786D01*
X6750119Y-12669881D01*
X6740595Y-12688928D01*
X6731071Y-12698452D01*
X6712024Y-12707976D01*
X6692976Y-12707976D01*
X6673928Y-12698452D01*
X6664405Y-12688928D01*
X6654881Y-12669881D01*
X6645357Y-12631786D01*
X6645357Y-12584167D01*
X6654881Y-12546071D01*
X6664405Y-12527024D01*
X6673928Y-12517500D01*
X6692976Y-12507976D01*
X6845357Y-12688928D02*
X6854881Y-12698452D01*
X6845357Y-12707976D01*
X6835833Y-12698452D01*
X6845357Y-12688928D01*
X6845357Y-12707976D01*
X6978690Y-12507976D02*
X6997738Y-12507976D01*
X7016786Y-12517500D01*
X7026309Y-12527024D01*
X7035833Y-12546071D01*
X7045357Y-12584167D01*
X7045357Y-12631786D01*
X7035833Y-12669881D01*
X7026309Y-12688928D01*
X7016786Y-12698452D01*
X6997738Y-12707976D01*
X6978690Y-12707976D01*
X6959643Y-12698452D01*
X6950119Y-12688928D01*
X6940595Y-12669881D01*
X6931071Y-12631786D01*
X6931071Y-12584167D01*
X6940595Y-12546071D01*
X6950119Y-12527024D01*
X6959643Y-12517500D01*
X6978690Y-12507976D01*
X7235833Y-12707976D02*
X7121548Y-12707976D01*
X7178690Y-12707976D02*
X7178690Y-12507976D01*
X7159643Y-12536548D01*
X7140595Y-12555595D01*
X7121548Y-12565119D01*
X7416786Y-12507976D02*
X7321548Y-12507976D01*
X7312024Y-12603214D01*
X7321548Y-12593690D01*
X7340595Y-12584167D01*
X7388214Y-12584167D01*
X7407262Y-12593690D01*
X7416786Y-12603214D01*
X7426309Y-12622262D01*
X7426309Y-12669881D01*
X7416786Y-12688928D01*
X7407262Y-12698452D01*
X7388214Y-12707976D01*
X7340595Y-12707976D01*
X7321548Y-12698452D01*
X7312024Y-12688928D01*
X7492976Y-12507976D02*
X7626309Y-12507976D01*
X7540595Y-12707976D01*
X7692976Y-12507976D02*
X7692976Y-12546071D01*
X7769167Y-12507976D02*
X7769167Y-12546071D01*
X8064405Y-12784167D02*
X8054881Y-12774643D01*
X8035833Y-12746071D01*
X8026309Y-12727024D01*
X8016786Y-12698452D01*
X8007262Y-12650833D01*
X8007262Y-12612738D01*
X8016786Y-12565119D01*
X8026309Y-12536548D01*
X8035833Y-12517500D01*
X8054881Y-12488928D01*
X8064405Y-12479405D01*
X8245357Y-12707976D02*
X8131071Y-12707976D01*
X8188214Y-12707976D02*
X8188214Y-12507976D01*
X8169167Y-12536548D01*
X8150119Y-12555595D01*
X8131071Y-12565119D01*
X8369167Y-12507976D02*
X8388214Y-12507976D01*
X8407262Y-12517500D01*
X8416786Y-12527024D01*
X8426310Y-12546071D01*
X8435833Y-12584167D01*
X8435833Y-12631786D01*
X8426310Y-12669881D01*
X8416786Y-12688928D01*
X8407262Y-12698452D01*
X8388214Y-12707976D01*
X8369167Y-12707976D01*
X8350119Y-12698452D01*
X8340595Y-12688928D01*
X8331071Y-12669881D01*
X8321548Y-12631786D01*
X8321548Y-12584167D01*
X8331071Y-12546071D01*
X8340595Y-12527024D01*
X8350119Y-12517500D01*
X8369167Y-12507976D01*
X8559643Y-12507976D02*
X8578690Y-12507976D01*
X8597738Y-12517500D01*
X8607262Y-12527024D01*
X8616786Y-12546071D01*
X8626310Y-12584167D01*
X8626310Y-12631786D01*
X8616786Y-12669881D01*
X8607262Y-12688928D01*
X8597738Y-12698452D01*
X8578690Y-12707976D01*
X8559643Y-12707976D01*
X8540595Y-12698452D01*
X8531071Y-12688928D01*
X8521548Y-12669881D01*
X8512024Y-12631786D01*
X8512024Y-12584167D01*
X8521548Y-12546071D01*
X8531071Y-12527024D01*
X8540595Y-12517500D01*
X8559643Y-12507976D01*
X8864405Y-12707976D02*
X8864405Y-12507976D01*
X8950119Y-12707976D02*
X8950119Y-12603214D01*
X8940595Y-12584167D01*
X8921548Y-12574643D01*
X8892976Y-12574643D01*
X8873929Y-12584167D01*
X8864405Y-12593690D01*
X9073929Y-12707976D02*
X9054881Y-12698452D01*
X9045357Y-12688928D01*
X9035833Y-12669881D01*
X9035833Y-12612738D01*
X9045357Y-12593690D01*
X9054881Y-12584167D01*
X9073929Y-12574643D01*
X9102500Y-12574643D01*
X9121548Y-12584167D01*
X9131071Y-12593690D01*
X9140595Y-12612738D01*
X9140595Y-12669881D01*
X9131071Y-12688928D01*
X9121548Y-12698452D01*
X9102500Y-12707976D01*
X9073929Y-12707976D01*
X9254881Y-12707976D02*
X9235833Y-12698452D01*
X9226310Y-12679405D01*
X9226310Y-12507976D01*
X9407262Y-12698452D02*
X9388214Y-12707976D01*
X9350119Y-12707976D01*
X9331071Y-12698452D01*
X9321548Y-12679405D01*
X9321548Y-12603214D01*
X9331071Y-12584167D01*
X9350119Y-12574643D01*
X9388214Y-12574643D01*
X9407262Y-12584167D01*
X9416786Y-12603214D01*
X9416786Y-12622262D01*
X9321548Y-12641309D01*
X9492976Y-12698452D02*
X9512024Y-12707976D01*
X9550119Y-12707976D01*
X9569167Y-12698452D01*
X9578690Y-12679405D01*
X9578690Y-12669881D01*
X9569167Y-12650833D01*
X9550119Y-12641309D01*
X9521548Y-12641309D01*
X9502500Y-12631786D01*
X9492976Y-12612738D01*
X9492976Y-12603214D01*
X9502500Y-12584167D01*
X9521548Y-12574643D01*
X9550119Y-12574643D01*
X9569167Y-12584167D01*
X9645357Y-12784167D02*
X9654881Y-12774643D01*
X9673929Y-12746071D01*
X9683452Y-12727024D01*
X9692976Y-12698452D01*
X9702500Y-12650833D01*
X9702500Y-12612738D01*
X9692976Y-12565119D01*
X9683452Y-12536548D01*
X9673929Y-12517500D01*
X9654881Y-12488928D01*
X9645357Y-12479405D01*
D13*
X4492500Y-12881500D02*
G75*
G03*
X4492500Y-12881500I-40000J0D01*
G01*
D11*
X4788214Y-12771976D02*
X4807262Y-12771976D01*
X4826310Y-12781500D01*
X4835833Y-12791024D01*
X4845357Y-12810071D01*
X4854881Y-12848167D01*
X4854881Y-12895786D01*
X4845357Y-12933881D01*
X4835833Y-12952928D01*
X4826310Y-12962452D01*
X4807262Y-12971976D01*
X4788214Y-12971976D01*
X4769167Y-12962452D01*
X4759643Y-12952928D01*
X4750119Y-12933881D01*
X4740595Y-12895786D01*
X4740595Y-12848167D01*
X4750119Y-12810071D01*
X4759643Y-12791024D01*
X4769167Y-12781500D01*
X4788214Y-12771976D01*
X4940595Y-12952928D02*
X4950119Y-12962452D01*
X4940595Y-12971976D01*
X4931071Y-12962452D01*
X4940595Y-12952928D01*
X4940595Y-12971976D01*
X5064405Y-12857690D02*
X5045357Y-12848167D01*
X5035833Y-12838643D01*
X5026310Y-12819595D01*
X5026310Y-12810071D01*
X5035833Y-12791024D01*
X5045357Y-12781500D01*
X5064405Y-12771976D01*
X5102500Y-12771976D01*
X5121548Y-12781500D01*
X5131071Y-12791024D01*
X5140595Y-12810071D01*
X5140595Y-12819595D01*
X5131071Y-12838643D01*
X5121548Y-12848167D01*
X5102500Y-12857690D01*
X5064405Y-12857690D01*
X5045357Y-12867214D01*
X5035833Y-12876738D01*
X5026310Y-12895786D01*
X5026310Y-12933881D01*
X5035833Y-12952928D01*
X5045357Y-12962452D01*
X5064405Y-12971976D01*
X5102500Y-12971976D01*
X5121548Y-12962452D01*
X5131071Y-12952928D01*
X5140595Y-12933881D01*
X5140595Y-12895786D01*
X5131071Y-12876738D01*
X5121548Y-12867214D01*
X5102500Y-12857690D01*
X5264405Y-12771976D02*
X5283452Y-12771976D01*
X5302500Y-12781500D01*
X5312024Y-12791024D01*
X5321548Y-12810071D01*
X5331071Y-12848167D01*
X5331071Y-12895786D01*
X5321548Y-12933881D01*
X5312024Y-12952928D01*
X5302500Y-12962452D01*
X5283452Y-12971976D01*
X5264405Y-12971976D01*
X5245357Y-12962452D01*
X5235833Y-12952928D01*
X5226310Y-12933881D01*
X5216786Y-12895786D01*
X5216786Y-12848167D01*
X5226310Y-12810071D01*
X5235833Y-12791024D01*
X5245357Y-12781500D01*
X5264405Y-12771976D01*
X5454881Y-12771976D02*
X5473929Y-12771976D01*
X5492976Y-12781500D01*
X5502500Y-12791024D01*
X5512024Y-12810071D01*
X5521548Y-12848167D01*
X5521548Y-12895786D01*
X5512024Y-12933881D01*
X5502500Y-12952928D01*
X5492976Y-12962452D01*
X5473929Y-12971976D01*
X5454881Y-12971976D01*
X5435833Y-12962452D01*
X5426310Y-12952928D01*
X5416786Y-12933881D01*
X5407262Y-12895786D01*
X5407262Y-12848167D01*
X5416786Y-12810071D01*
X5426310Y-12791024D01*
X5435833Y-12781500D01*
X5454881Y-12771976D01*
X5607262Y-12971976D02*
X5607262Y-12838643D01*
X5607262Y-12857690D02*
X5616786Y-12848167D01*
X5635833Y-12838643D01*
X5664405Y-12838643D01*
X5683452Y-12848167D01*
X5692976Y-12867214D01*
X5692976Y-12971976D01*
X5692976Y-12867214D02*
X5702500Y-12848167D01*
X5721548Y-12838643D01*
X5750119Y-12838643D01*
X5769167Y-12848167D01*
X5778690Y-12867214D01*
X5778690Y-12971976D01*
X5873928Y-12971976D02*
X5873928Y-12838643D01*
X5873928Y-12857690D02*
X5883452Y-12848167D01*
X5902500Y-12838643D01*
X5931071Y-12838643D01*
X5950119Y-12848167D01*
X5959643Y-12867214D01*
X5959643Y-12971976D01*
X5959643Y-12867214D02*
X5969167Y-12848167D01*
X5988214Y-12838643D01*
X6016786Y-12838643D01*
X6035833Y-12848167D01*
X6045357Y-12867214D01*
X6045357Y-12971976D01*
X6435833Y-12762452D02*
X6264405Y-13019595D01*
X6692976Y-12771976D02*
X6712024Y-12771976D01*
X6731071Y-12781500D01*
X6740595Y-12791024D01*
X6750119Y-12810071D01*
X6759643Y-12848167D01*
X6759643Y-12895786D01*
X6750119Y-12933881D01*
X6740595Y-12952928D01*
X6731071Y-12962452D01*
X6712024Y-12971976D01*
X6692976Y-12971976D01*
X6673928Y-12962452D01*
X6664405Y-12952928D01*
X6654881Y-12933881D01*
X6645357Y-12895786D01*
X6645357Y-12848167D01*
X6654881Y-12810071D01*
X6664405Y-12791024D01*
X6673928Y-12781500D01*
X6692976Y-12771976D01*
X6845357Y-12952928D02*
X6854881Y-12962452D01*
X6845357Y-12971976D01*
X6835833Y-12962452D01*
X6845357Y-12952928D01*
X6845357Y-12971976D01*
X6978690Y-12771976D02*
X6997738Y-12771976D01*
X7016786Y-12781500D01*
X7026309Y-12791024D01*
X7035833Y-12810071D01*
X7045357Y-12848167D01*
X7045357Y-12895786D01*
X7035833Y-12933881D01*
X7026309Y-12952928D01*
X7016786Y-12962452D01*
X6997738Y-12971976D01*
X6978690Y-12971976D01*
X6959643Y-12962452D01*
X6950119Y-12952928D01*
X6940595Y-12933881D01*
X6931071Y-12895786D01*
X6931071Y-12848167D01*
X6940595Y-12810071D01*
X6950119Y-12791024D01*
X6959643Y-12781500D01*
X6978690Y-12771976D01*
X7112024Y-12771976D02*
X7235833Y-12771976D01*
X7169167Y-12848167D01*
X7197738Y-12848167D01*
X7216786Y-12857690D01*
X7226309Y-12867214D01*
X7235833Y-12886262D01*
X7235833Y-12933881D01*
X7226309Y-12952928D01*
X7216786Y-12962452D01*
X7197738Y-12971976D01*
X7140595Y-12971976D01*
X7121548Y-12962452D01*
X7112024Y-12952928D01*
X7426309Y-12971976D02*
X7312024Y-12971976D01*
X7369167Y-12971976D02*
X7369167Y-12771976D01*
X7350119Y-12800548D01*
X7331071Y-12819595D01*
X7312024Y-12829119D01*
X7607262Y-12771976D02*
X7512024Y-12771976D01*
X7502500Y-12867214D01*
X7512024Y-12857690D01*
X7531071Y-12848167D01*
X7578690Y-12848167D01*
X7597738Y-12857690D01*
X7607262Y-12867214D01*
X7616786Y-12886262D01*
X7616786Y-12933881D01*
X7607262Y-12952928D01*
X7597738Y-12962452D01*
X7578690Y-12971976D01*
X7531071Y-12971976D01*
X7512024Y-12962452D01*
X7502500Y-12952928D01*
X7692976Y-12771976D02*
X7692976Y-12810071D01*
X7769167Y-12771976D02*
X7769167Y-12810071D01*
X8064405Y-13048167D02*
X8054881Y-13038643D01*
X8035833Y-13010071D01*
X8026309Y-12991024D01*
X8016786Y-12962452D01*
X8007262Y-12914833D01*
X8007262Y-12876738D01*
X8016786Y-12829119D01*
X8026309Y-12800548D01*
X8035833Y-12781500D01*
X8054881Y-12752928D01*
X8064405Y-12743405D01*
X8150119Y-12971976D02*
X8188214Y-12971976D01*
X8207262Y-12962452D01*
X8216786Y-12952928D01*
X8235833Y-12924357D01*
X8245357Y-12886262D01*
X8245357Y-12810071D01*
X8235833Y-12791024D01*
X8226309Y-12781500D01*
X8207262Y-12771976D01*
X8169167Y-12771976D01*
X8150119Y-12781500D01*
X8140595Y-12791024D01*
X8131071Y-12810071D01*
X8131071Y-12857690D01*
X8140595Y-12876738D01*
X8150119Y-12886262D01*
X8169167Y-12895786D01*
X8207262Y-12895786D01*
X8226309Y-12886262D01*
X8235833Y-12876738D01*
X8245357Y-12857690D01*
X8483452Y-12971976D02*
X8483452Y-12771976D01*
X8569167Y-12971976D02*
X8569167Y-12867214D01*
X8559643Y-12848167D01*
X8540595Y-12838643D01*
X8512024Y-12838643D01*
X8492976Y-12848167D01*
X8483452Y-12857690D01*
X8692976Y-12971976D02*
X8673929Y-12962452D01*
X8664405Y-12952928D01*
X8654881Y-12933881D01*
X8654881Y-12876738D01*
X8664405Y-12857690D01*
X8673929Y-12848167D01*
X8692976Y-12838643D01*
X8721548Y-12838643D01*
X8740595Y-12848167D01*
X8750119Y-12857690D01*
X8759643Y-12876738D01*
X8759643Y-12933881D01*
X8750119Y-12952928D01*
X8740595Y-12962452D01*
X8721548Y-12971976D01*
X8692976Y-12971976D01*
X8873929Y-12971976D02*
X8854881Y-12962452D01*
X8845357Y-12943405D01*
X8845357Y-12771976D01*
X9026310Y-12962452D02*
X9007262Y-12971976D01*
X8969167Y-12971976D01*
X8950119Y-12962452D01*
X8940595Y-12943405D01*
X8940595Y-12867214D01*
X8950119Y-12848167D01*
X8969167Y-12838643D01*
X9007262Y-12838643D01*
X9026310Y-12848167D01*
X9035833Y-12867214D01*
X9035833Y-12886262D01*
X8940595Y-12905309D01*
X9112024Y-12962452D02*
X9131071Y-12971976D01*
X9169167Y-12971976D01*
X9188214Y-12962452D01*
X9197738Y-12943405D01*
X9197738Y-12933881D01*
X9188214Y-12914833D01*
X9169167Y-12905309D01*
X9140595Y-12905309D01*
X9121548Y-12895786D01*
X9112024Y-12876738D01*
X9112024Y-12867214D01*
X9121548Y-12848167D01*
X9140595Y-12838643D01*
X9169167Y-12838643D01*
X9188214Y-12848167D01*
X9264405Y-13048167D02*
X9273929Y-13038643D01*
X9292976Y-13010071D01*
X9302500Y-12991024D01*
X9312024Y-12962452D01*
X9321548Y-12914833D01*
X9321548Y-12876738D01*
X9312024Y-12829119D01*
X9302500Y-12800548D01*
X9292976Y-12781500D01*
X9273929Y-12752928D01*
X9264405Y-12743405D01*
D14*
X4442500Y-13095500D02*
X4442500Y-13195500D01*
X4392500Y-13145500D02*
X4492500Y-13145500D01*
D11*
X4854881Y-13235976D02*
X4740595Y-13235976D01*
X4797738Y-13235976D02*
X4797738Y-13035976D01*
X4778690Y-13064548D01*
X4759643Y-13083595D01*
X4740595Y-13093119D01*
X4940595Y-13216928D02*
X4950119Y-13226452D01*
X4940595Y-13235976D01*
X4931071Y-13226452D01*
X4940595Y-13216928D01*
X4940595Y-13235976D01*
X5073929Y-13035976D02*
X5092976Y-13035976D01*
X5112024Y-13045500D01*
X5121548Y-13055024D01*
X5131071Y-13074071D01*
X5140595Y-13112167D01*
X5140595Y-13159786D01*
X5131071Y-13197881D01*
X5121548Y-13216928D01*
X5112024Y-13226452D01*
X5092976Y-13235976D01*
X5073929Y-13235976D01*
X5054881Y-13226452D01*
X5045357Y-13216928D01*
X5035833Y-13197881D01*
X5026310Y-13159786D01*
X5026310Y-13112167D01*
X5035833Y-13074071D01*
X5045357Y-13055024D01*
X5054881Y-13045500D01*
X5073929Y-13035976D01*
X5264405Y-13035976D02*
X5283452Y-13035976D01*
X5302500Y-13045500D01*
X5312024Y-13055024D01*
X5321548Y-13074071D01*
X5331071Y-13112167D01*
X5331071Y-13159786D01*
X5321548Y-13197881D01*
X5312024Y-13216928D01*
X5302500Y-13226452D01*
X5283452Y-13235976D01*
X5264405Y-13235976D01*
X5245357Y-13226452D01*
X5235833Y-13216928D01*
X5226310Y-13197881D01*
X5216786Y-13159786D01*
X5216786Y-13112167D01*
X5226310Y-13074071D01*
X5235833Y-13055024D01*
X5245357Y-13045500D01*
X5264405Y-13035976D01*
X5454881Y-13035976D02*
X5473929Y-13035976D01*
X5492976Y-13045500D01*
X5502500Y-13055024D01*
X5512024Y-13074071D01*
X5521548Y-13112167D01*
X5521548Y-13159786D01*
X5512024Y-13197881D01*
X5502500Y-13216928D01*
X5492976Y-13226452D01*
X5473929Y-13235976D01*
X5454881Y-13235976D01*
X5435833Y-13226452D01*
X5426310Y-13216928D01*
X5416786Y-13197881D01*
X5407262Y-13159786D01*
X5407262Y-13112167D01*
X5416786Y-13074071D01*
X5426310Y-13055024D01*
X5435833Y-13045500D01*
X5454881Y-13035976D01*
X5607262Y-13235976D02*
X5607262Y-13102643D01*
X5607262Y-13121690D02*
X5616786Y-13112167D01*
X5635833Y-13102643D01*
X5664405Y-13102643D01*
X5683452Y-13112167D01*
X5692976Y-13131214D01*
X5692976Y-13235976D01*
X5692976Y-13131214D02*
X5702500Y-13112167D01*
X5721548Y-13102643D01*
X5750119Y-13102643D01*
X5769167Y-13112167D01*
X5778690Y-13131214D01*
X5778690Y-13235976D01*
X5873928Y-13235976D02*
X5873928Y-13102643D01*
X5873928Y-13121690D02*
X5883452Y-13112167D01*
X5902500Y-13102643D01*
X5931071Y-13102643D01*
X5950119Y-13112167D01*
X5959643Y-13131214D01*
X5959643Y-13235976D01*
X5959643Y-13131214D02*
X5969167Y-13112167D01*
X5988214Y-13102643D01*
X6016786Y-13102643D01*
X6035833Y-13112167D01*
X6045357Y-13131214D01*
X6045357Y-13235976D01*
X6435833Y-13026452D02*
X6264405Y-13283595D01*
X6692976Y-13035976D02*
X6712024Y-13035976D01*
X6731071Y-13045500D01*
X6740595Y-13055024D01*
X6750119Y-13074071D01*
X6759643Y-13112167D01*
X6759643Y-13159786D01*
X6750119Y-13197881D01*
X6740595Y-13216928D01*
X6731071Y-13226452D01*
X6712024Y-13235976D01*
X6692976Y-13235976D01*
X6673928Y-13226452D01*
X6664405Y-13216928D01*
X6654881Y-13197881D01*
X6645357Y-13159786D01*
X6645357Y-13112167D01*
X6654881Y-13074071D01*
X6664405Y-13055024D01*
X6673928Y-13045500D01*
X6692976Y-13035976D01*
X6845357Y-13216928D02*
X6854881Y-13226452D01*
X6845357Y-13235976D01*
X6835833Y-13226452D01*
X6845357Y-13216928D01*
X6845357Y-13235976D01*
X6978690Y-13035976D02*
X6997738Y-13035976D01*
X7016786Y-13045500D01*
X7026309Y-13055024D01*
X7035833Y-13074071D01*
X7045357Y-13112167D01*
X7045357Y-13159786D01*
X7035833Y-13197881D01*
X7026309Y-13216928D01*
X7016786Y-13226452D01*
X6997738Y-13235976D01*
X6978690Y-13235976D01*
X6959643Y-13226452D01*
X6950119Y-13216928D01*
X6940595Y-13197881D01*
X6931071Y-13159786D01*
X6931071Y-13112167D01*
X6940595Y-13074071D01*
X6950119Y-13055024D01*
X6959643Y-13045500D01*
X6978690Y-13035976D01*
X7112024Y-13035976D02*
X7235833Y-13035976D01*
X7169167Y-13112167D01*
X7197738Y-13112167D01*
X7216786Y-13121690D01*
X7226309Y-13131214D01*
X7235833Y-13150262D01*
X7235833Y-13197881D01*
X7226309Y-13216928D01*
X7216786Y-13226452D01*
X7197738Y-13235976D01*
X7140595Y-13235976D01*
X7121548Y-13226452D01*
X7112024Y-13216928D01*
X7331071Y-13235976D02*
X7369167Y-13235976D01*
X7388214Y-13226452D01*
X7397738Y-13216928D01*
X7416786Y-13188357D01*
X7426309Y-13150262D01*
X7426309Y-13074071D01*
X7416786Y-13055024D01*
X7407262Y-13045500D01*
X7388214Y-13035976D01*
X7350119Y-13035976D01*
X7331071Y-13045500D01*
X7321548Y-13055024D01*
X7312024Y-13074071D01*
X7312024Y-13121690D01*
X7321548Y-13140738D01*
X7331071Y-13150262D01*
X7350119Y-13159786D01*
X7388214Y-13159786D01*
X7407262Y-13150262D01*
X7416786Y-13140738D01*
X7426309Y-13121690D01*
X7597738Y-13102643D02*
X7597738Y-13235976D01*
X7550119Y-13026452D02*
X7502500Y-13169309D01*
X7626309Y-13169309D01*
X7692976Y-13035976D02*
X7692976Y-13074071D01*
X7769167Y-13035976D02*
X7769167Y-13074071D01*
X8064405Y-13312167D02*
X8054881Y-13302643D01*
X8035833Y-13274071D01*
X8026309Y-13255024D01*
X8016786Y-13226452D01*
X8007262Y-13178833D01*
X8007262Y-13140738D01*
X8016786Y-13093119D01*
X8026309Y-13064548D01*
X8035833Y-13045500D01*
X8054881Y-13016928D01*
X8064405Y-13007405D01*
X8121548Y-13035976D02*
X8245357Y-13035976D01*
X8178690Y-13112167D01*
X8207262Y-13112167D01*
X8226309Y-13121690D01*
X8235833Y-13131214D01*
X8245357Y-13150262D01*
X8245357Y-13197881D01*
X8235833Y-13216928D01*
X8226309Y-13226452D01*
X8207262Y-13235976D01*
X8150119Y-13235976D01*
X8131071Y-13226452D01*
X8121548Y-13216928D01*
X8416786Y-13102643D02*
X8416786Y-13235976D01*
X8369167Y-13026452D02*
X8321548Y-13169309D01*
X8445357Y-13169309D01*
X8673929Y-13235976D02*
X8673929Y-13035976D01*
X8759643Y-13235976D02*
X8759643Y-13131214D01*
X8750119Y-13112167D01*
X8731071Y-13102643D01*
X8702500Y-13102643D01*
X8683452Y-13112167D01*
X8673929Y-13121690D01*
X8883452Y-13235976D02*
X8864405Y-13226452D01*
X8854881Y-13216928D01*
X8845357Y-13197881D01*
X8845357Y-13140738D01*
X8854881Y-13121690D01*
X8864405Y-13112167D01*
X8883452Y-13102643D01*
X8912024Y-13102643D01*
X8931071Y-13112167D01*
X8940595Y-13121690D01*
X8950119Y-13140738D01*
X8950119Y-13197881D01*
X8940595Y-13216928D01*
X8931071Y-13226452D01*
X8912024Y-13235976D01*
X8883452Y-13235976D01*
X9064405Y-13235976D02*
X9045357Y-13226452D01*
X9035833Y-13207405D01*
X9035833Y-13035976D01*
X9216786Y-13226452D02*
X9197738Y-13235976D01*
X9159643Y-13235976D01*
X9140595Y-13226452D01*
X9131071Y-13207405D01*
X9131071Y-13131214D01*
X9140595Y-13112167D01*
X9159643Y-13102643D01*
X9197738Y-13102643D01*
X9216786Y-13112167D01*
X9226310Y-13131214D01*
X9226310Y-13150262D01*
X9131071Y-13169309D01*
X9302500Y-13226452D02*
X9321548Y-13235976D01*
X9359643Y-13235976D01*
X9378690Y-13226452D01*
X9388214Y-13207405D01*
X9388214Y-13197881D01*
X9378690Y-13178833D01*
X9359643Y-13169309D01*
X9331071Y-13169309D01*
X9312024Y-13159786D01*
X9302500Y-13140738D01*
X9302500Y-13131214D01*
X9312024Y-13112167D01*
X9331071Y-13102643D01*
X9359643Y-13102643D01*
X9378690Y-13112167D01*
X9454881Y-13312167D02*
X9464405Y-13302643D01*
X9483452Y-13274071D01*
X9492976Y-13255024D01*
X9502500Y-13226452D01*
X9512024Y-13178833D01*
X9512024Y-13140738D01*
X9502500Y-13093119D01*
X9492976Y-13064548D01*
X9483452Y-13045500D01*
X9464405Y-13016928D01*
X9454881Y-13007405D01*
D15*
X4469069Y-13466069D02*
X4469069Y-13352931D01*
X4355931Y-13352931D01*
X4355931Y-13466069D01*
X4469069Y-13466069D01*
D11*
X4854881Y-13499976D02*
X4740595Y-13499976D01*
X4797738Y-13499976D02*
X4797738Y-13299976D01*
X4778690Y-13328548D01*
X4759643Y-13347595D01*
X4740595Y-13357119D01*
X4940595Y-13480928D02*
X4950119Y-13490452D01*
X4940595Y-13499976D01*
X4931071Y-13490452D01*
X4940595Y-13480928D01*
X4940595Y-13499976D01*
X5121548Y-13299976D02*
X5083452Y-13299976D01*
X5064405Y-13309500D01*
X5054881Y-13319024D01*
X5035833Y-13347595D01*
X5026310Y-13385690D01*
X5026310Y-13461881D01*
X5035833Y-13480928D01*
X5045357Y-13490452D01*
X5064405Y-13499976D01*
X5102500Y-13499976D01*
X5121548Y-13490452D01*
X5131071Y-13480928D01*
X5140595Y-13461881D01*
X5140595Y-13414262D01*
X5131071Y-13395214D01*
X5121548Y-13385690D01*
X5102500Y-13376167D01*
X5064405Y-13376167D01*
X5045357Y-13385690D01*
X5035833Y-13395214D01*
X5026310Y-13414262D01*
X5264405Y-13299976D02*
X5283452Y-13299976D01*
X5302500Y-13309500D01*
X5312024Y-13319024D01*
X5321548Y-13338071D01*
X5331071Y-13376167D01*
X5331071Y-13423786D01*
X5321548Y-13461881D01*
X5312024Y-13480928D01*
X5302500Y-13490452D01*
X5283452Y-13499976D01*
X5264405Y-13499976D01*
X5245357Y-13490452D01*
X5235833Y-13480928D01*
X5226310Y-13461881D01*
X5216786Y-13423786D01*
X5216786Y-13376167D01*
X5226310Y-13338071D01*
X5235833Y-13319024D01*
X5245357Y-13309500D01*
X5264405Y-13299976D01*
X5454881Y-13299976D02*
X5473929Y-13299976D01*
X5492976Y-13309500D01*
X5502500Y-13319024D01*
X5512024Y-13338071D01*
X5521548Y-13376167D01*
X5521548Y-13423786D01*
X5512024Y-13461881D01*
X5502500Y-13480928D01*
X5492976Y-13490452D01*
X5473929Y-13499976D01*
X5454881Y-13499976D01*
X5435833Y-13490452D01*
X5426310Y-13480928D01*
X5416786Y-13461881D01*
X5407262Y-13423786D01*
X5407262Y-13376167D01*
X5416786Y-13338071D01*
X5426310Y-13319024D01*
X5435833Y-13309500D01*
X5454881Y-13299976D01*
X5607262Y-13499976D02*
X5607262Y-13366643D01*
X5607262Y-13385690D02*
X5616786Y-13376167D01*
X5635833Y-13366643D01*
X5664405Y-13366643D01*
X5683452Y-13376167D01*
X5692976Y-13395214D01*
X5692976Y-13499976D01*
X5692976Y-13395214D02*
X5702500Y-13376167D01*
X5721548Y-13366643D01*
X5750119Y-13366643D01*
X5769167Y-13376167D01*
X5778690Y-13395214D01*
X5778690Y-13499976D01*
X5873928Y-13499976D02*
X5873928Y-13366643D01*
X5873928Y-13385690D02*
X5883452Y-13376167D01*
X5902500Y-13366643D01*
X5931071Y-13366643D01*
X5950119Y-13376167D01*
X5959643Y-13395214D01*
X5959643Y-13499976D01*
X5959643Y-13395214D02*
X5969167Y-13376167D01*
X5988214Y-13366643D01*
X6016786Y-13366643D01*
X6035833Y-13376167D01*
X6045357Y-13395214D01*
X6045357Y-13499976D01*
X6435833Y-13290452D02*
X6264405Y-13547595D01*
X6692976Y-13299976D02*
X6712024Y-13299976D01*
X6731071Y-13309500D01*
X6740595Y-13319024D01*
X6750119Y-13338071D01*
X6759643Y-13376167D01*
X6759643Y-13423786D01*
X6750119Y-13461881D01*
X6740595Y-13480928D01*
X6731071Y-13490452D01*
X6712024Y-13499976D01*
X6692976Y-13499976D01*
X6673928Y-13490452D01*
X6664405Y-13480928D01*
X6654881Y-13461881D01*
X6645357Y-13423786D01*
X6645357Y-13376167D01*
X6654881Y-13338071D01*
X6664405Y-13319024D01*
X6673928Y-13309500D01*
X6692976Y-13299976D01*
X6845357Y-13480928D02*
X6854881Y-13490452D01*
X6845357Y-13499976D01*
X6835833Y-13490452D01*
X6845357Y-13480928D01*
X6845357Y-13499976D01*
X6978690Y-13299976D02*
X6997738Y-13299976D01*
X7016786Y-13309500D01*
X7026309Y-13319024D01*
X7035833Y-13338071D01*
X7045357Y-13376167D01*
X7045357Y-13423786D01*
X7035833Y-13461881D01*
X7026309Y-13480928D01*
X7016786Y-13490452D01*
X6997738Y-13499976D01*
X6978690Y-13499976D01*
X6959643Y-13490452D01*
X6950119Y-13480928D01*
X6940595Y-13461881D01*
X6931071Y-13423786D01*
X6931071Y-13376167D01*
X6940595Y-13338071D01*
X6950119Y-13319024D01*
X6959643Y-13309500D01*
X6978690Y-13299976D01*
X7216786Y-13299976D02*
X7178690Y-13299976D01*
X7159643Y-13309500D01*
X7150119Y-13319024D01*
X7131071Y-13347595D01*
X7121548Y-13385690D01*
X7121548Y-13461881D01*
X7131071Y-13480928D01*
X7140595Y-13490452D01*
X7159643Y-13499976D01*
X7197738Y-13499976D01*
X7216786Y-13490452D01*
X7226309Y-13480928D01*
X7235833Y-13461881D01*
X7235833Y-13414262D01*
X7226309Y-13395214D01*
X7216786Y-13385690D01*
X7197738Y-13376167D01*
X7159643Y-13376167D01*
X7140595Y-13385690D01*
X7131071Y-13395214D01*
X7121548Y-13414262D01*
X7302500Y-13299976D02*
X7426309Y-13299976D01*
X7359643Y-13376167D01*
X7388214Y-13376167D01*
X7407262Y-13385690D01*
X7416786Y-13395214D01*
X7426309Y-13414262D01*
X7426309Y-13461881D01*
X7416786Y-13480928D01*
X7407262Y-13490452D01*
X7388214Y-13499976D01*
X7331071Y-13499976D01*
X7312024Y-13490452D01*
X7302500Y-13480928D01*
X7550119Y-13299976D02*
X7569167Y-13299976D01*
X7588214Y-13309500D01*
X7597738Y-13319024D01*
X7607262Y-13338071D01*
X7616786Y-13376167D01*
X7616786Y-13423786D01*
X7607262Y-13461881D01*
X7597738Y-13480928D01*
X7588214Y-13490452D01*
X7569167Y-13499976D01*
X7550119Y-13499976D01*
X7531071Y-13490452D01*
X7521548Y-13480928D01*
X7512024Y-13461881D01*
X7502500Y-13423786D01*
X7502500Y-13376167D01*
X7512024Y-13338071D01*
X7521548Y-13319024D01*
X7531071Y-13309500D01*
X7550119Y-13299976D01*
X7692976Y-13299976D02*
X7692976Y-13338071D01*
X7769167Y-13299976D02*
X7769167Y-13338071D01*
X8064405Y-13576167D02*
X8054881Y-13566643D01*
X8035833Y-13538071D01*
X8026309Y-13519024D01*
X8016786Y-13490452D01*
X8007262Y-13442833D01*
X8007262Y-13404738D01*
X8016786Y-13357119D01*
X8026309Y-13328548D01*
X8035833Y-13309500D01*
X8054881Y-13280928D01*
X8064405Y-13271405D01*
X8131071Y-13319024D02*
X8140595Y-13309500D01*
X8159643Y-13299976D01*
X8207262Y-13299976D01*
X8226309Y-13309500D01*
X8235833Y-13319024D01*
X8245357Y-13338071D01*
X8245357Y-13357119D01*
X8235833Y-13385690D01*
X8121548Y-13499976D01*
X8245357Y-13499976D01*
X8435833Y-13499976D02*
X8321548Y-13499976D01*
X8378690Y-13499976D02*
X8378690Y-13299976D01*
X8359643Y-13328548D01*
X8340595Y-13347595D01*
X8321548Y-13357119D01*
X8673929Y-13499976D02*
X8673929Y-13299976D01*
X8759643Y-13499976D02*
X8759643Y-13395214D01*
X8750119Y-13376167D01*
X8731071Y-13366643D01*
X8702500Y-13366643D01*
X8683452Y-13376167D01*
X8673929Y-13385690D01*
X8883452Y-13499976D02*
X8864405Y-13490452D01*
X8854881Y-13480928D01*
X8845357Y-13461881D01*
X8845357Y-13404738D01*
X8854881Y-13385690D01*
X8864405Y-13376167D01*
X8883452Y-13366643D01*
X8912024Y-13366643D01*
X8931071Y-13376167D01*
X8940595Y-13385690D01*
X8950119Y-13404738D01*
X8950119Y-13461881D01*
X8940595Y-13480928D01*
X8931071Y-13490452D01*
X8912024Y-13499976D01*
X8883452Y-13499976D01*
X9064405Y-13499976D02*
X9045357Y-13490452D01*
X9035833Y-13471405D01*
X9035833Y-13299976D01*
X9216786Y-13490452D02*
X9197738Y-13499976D01*
X9159643Y-13499976D01*
X9140595Y-13490452D01*
X9131071Y-13471405D01*
X9131071Y-13395214D01*
X9140595Y-13376167D01*
X9159643Y-13366643D01*
X9197738Y-13366643D01*
X9216786Y-13376167D01*
X9226310Y-13395214D01*
X9226310Y-13414262D01*
X9131071Y-13433309D01*
X9302500Y-13490452D02*
X9321548Y-13499976D01*
X9359643Y-13499976D01*
X9378690Y-13490452D01*
X9388214Y-13471405D01*
X9388214Y-13461881D01*
X9378690Y-13442833D01*
X9359643Y-13433309D01*
X9331071Y-13433309D01*
X9312024Y-13423786D01*
X9302500Y-13404738D01*
X9302500Y-13395214D01*
X9312024Y-13376167D01*
X9331071Y-13366643D01*
X9359643Y-13366643D01*
X9378690Y-13376167D01*
X9454881Y-13576167D02*
X9464405Y-13566643D01*
X9483452Y-13538071D01*
X9492976Y-13519024D01*
X9502500Y-13490452D01*
X9512024Y-13442833D01*
X9512024Y-13404738D01*
X9502500Y-13357119D01*
X9492976Y-13328548D01*
X9483452Y-13309500D01*
X9464405Y-13280928D01*
X9454881Y-13271405D01*
D16*
X4402500Y-13779500D02*
X4492500Y-13689500D01*
X4402500Y-13599500D01*
X4312500Y-13689500D01*
X4402500Y-13779500D01*
D11*
X4854881Y-13779976D02*
X4740595Y-13779976D01*
X4797738Y-13779976D02*
X4797738Y-13579976D01*
X4778690Y-13608548D01*
X4759643Y-13627595D01*
X4740595Y-13637119D01*
X4940595Y-13760928D02*
X4950119Y-13770452D01*
X4940595Y-13779976D01*
X4931071Y-13770452D01*
X4940595Y-13760928D01*
X4940595Y-13779976D01*
X5064405Y-13665690D02*
X5045357Y-13656167D01*
X5035833Y-13646643D01*
X5026310Y-13627595D01*
X5026310Y-13618071D01*
X5035833Y-13599024D01*
X5045357Y-13589500D01*
X5064405Y-13579976D01*
X5102500Y-13579976D01*
X5121548Y-13589500D01*
X5131071Y-13599024D01*
X5140595Y-13618071D01*
X5140595Y-13627595D01*
X5131071Y-13646643D01*
X5121548Y-13656167D01*
X5102500Y-13665690D01*
X5064405Y-13665690D01*
X5045357Y-13675214D01*
X5035833Y-13684738D01*
X5026310Y-13703786D01*
X5026310Y-13741881D01*
X5035833Y-13760928D01*
X5045357Y-13770452D01*
X5064405Y-13779976D01*
X5102500Y-13779976D01*
X5121548Y-13770452D01*
X5131071Y-13760928D01*
X5140595Y-13741881D01*
X5140595Y-13703786D01*
X5131071Y-13684738D01*
X5121548Y-13675214D01*
X5102500Y-13665690D01*
X5264405Y-13579976D02*
X5283452Y-13579976D01*
X5302500Y-13589500D01*
X5312024Y-13599024D01*
X5321548Y-13618071D01*
X5331071Y-13656167D01*
X5331071Y-13703786D01*
X5321548Y-13741881D01*
X5312024Y-13760928D01*
X5302500Y-13770452D01*
X5283452Y-13779976D01*
X5264405Y-13779976D01*
X5245357Y-13770452D01*
X5235833Y-13760928D01*
X5226310Y-13741881D01*
X5216786Y-13703786D01*
X5216786Y-13656167D01*
X5226310Y-13618071D01*
X5235833Y-13599024D01*
X5245357Y-13589500D01*
X5264405Y-13579976D01*
X5454881Y-13579976D02*
X5473929Y-13579976D01*
X5492976Y-13589500D01*
X5502500Y-13599024D01*
X5512024Y-13618071D01*
X5521548Y-13656167D01*
X5521548Y-13703786D01*
X5512024Y-13741881D01*
X5502500Y-13760928D01*
X5492976Y-13770452D01*
X5473929Y-13779976D01*
X5454881Y-13779976D01*
X5435833Y-13770452D01*
X5426310Y-13760928D01*
X5416786Y-13741881D01*
X5407262Y-13703786D01*
X5407262Y-13656167D01*
X5416786Y-13618071D01*
X5426310Y-13599024D01*
X5435833Y-13589500D01*
X5454881Y-13579976D01*
X5607262Y-13779976D02*
X5607262Y-13646643D01*
X5607262Y-13665690D02*
X5616786Y-13656167D01*
X5635833Y-13646643D01*
X5664405Y-13646643D01*
X5683452Y-13656167D01*
X5692976Y-13675214D01*
X5692976Y-13779976D01*
X5692976Y-13675214D02*
X5702500Y-13656167D01*
X5721548Y-13646643D01*
X5750119Y-13646643D01*
X5769167Y-13656167D01*
X5778690Y-13675214D01*
X5778690Y-13779976D01*
X5873928Y-13779976D02*
X5873928Y-13646643D01*
X5873928Y-13665690D02*
X5883452Y-13656167D01*
X5902500Y-13646643D01*
X5931071Y-13646643D01*
X5950119Y-13656167D01*
X5959643Y-13675214D01*
X5959643Y-13779976D01*
X5959643Y-13675214D02*
X5969167Y-13656167D01*
X5988214Y-13646643D01*
X6016786Y-13646643D01*
X6035833Y-13656167D01*
X6045357Y-13675214D01*
X6045357Y-13779976D01*
X6435833Y-13570452D02*
X6264405Y-13827595D01*
X6692976Y-13579976D02*
X6712024Y-13579976D01*
X6731071Y-13589500D01*
X6740595Y-13599024D01*
X6750119Y-13618071D01*
X6759643Y-13656167D01*
X6759643Y-13703786D01*
X6750119Y-13741881D01*
X6740595Y-13760928D01*
X6731071Y-13770452D01*
X6712024Y-13779976D01*
X6692976Y-13779976D01*
X6673928Y-13770452D01*
X6664405Y-13760928D01*
X6654881Y-13741881D01*
X6645357Y-13703786D01*
X6645357Y-13656167D01*
X6654881Y-13618071D01*
X6664405Y-13599024D01*
X6673928Y-13589500D01*
X6692976Y-13579976D01*
X6845357Y-13760928D02*
X6854881Y-13770452D01*
X6845357Y-13779976D01*
X6835833Y-13770452D01*
X6845357Y-13760928D01*
X6845357Y-13779976D01*
X6978690Y-13579976D02*
X6997738Y-13579976D01*
X7016786Y-13589500D01*
X7026309Y-13599024D01*
X7035833Y-13618071D01*
X7045357Y-13656167D01*
X7045357Y-13703786D01*
X7035833Y-13741881D01*
X7026309Y-13760928D01*
X7016786Y-13770452D01*
X6997738Y-13779976D01*
X6978690Y-13779976D01*
X6959643Y-13770452D01*
X6950119Y-13760928D01*
X6940595Y-13741881D01*
X6931071Y-13703786D01*
X6931071Y-13656167D01*
X6940595Y-13618071D01*
X6950119Y-13599024D01*
X6959643Y-13589500D01*
X6978690Y-13579976D01*
X7112024Y-13579976D02*
X7245357Y-13579976D01*
X7159643Y-13779976D01*
X7359643Y-13579976D02*
X7378690Y-13579976D01*
X7397738Y-13589500D01*
X7407262Y-13599024D01*
X7416786Y-13618071D01*
X7426309Y-13656167D01*
X7426309Y-13703786D01*
X7416786Y-13741881D01*
X7407262Y-13760928D01*
X7397738Y-13770452D01*
X7378690Y-13779976D01*
X7359643Y-13779976D01*
X7340595Y-13770452D01*
X7331071Y-13760928D01*
X7321548Y-13741881D01*
X7312024Y-13703786D01*
X7312024Y-13656167D01*
X7321548Y-13618071D01*
X7331071Y-13599024D01*
X7340595Y-13589500D01*
X7359643Y-13579976D01*
X7521548Y-13779976D02*
X7559643Y-13779976D01*
X7578690Y-13770452D01*
X7588214Y-13760928D01*
X7607262Y-13732357D01*
X7616786Y-13694262D01*
X7616786Y-13618071D01*
X7607262Y-13599024D01*
X7597738Y-13589500D01*
X7578690Y-13579976D01*
X7540595Y-13579976D01*
X7521548Y-13589500D01*
X7512024Y-13599024D01*
X7502500Y-13618071D01*
X7502500Y-13665690D01*
X7512024Y-13684738D01*
X7521548Y-13694262D01*
X7540595Y-13703786D01*
X7578690Y-13703786D01*
X7597738Y-13694262D01*
X7607262Y-13684738D01*
X7616786Y-13665690D01*
X7692976Y-13579976D02*
X7692976Y-13618071D01*
X7769167Y-13579976D02*
X7769167Y-13618071D01*
X8064405Y-13856167D02*
X8054881Y-13846643D01*
X8035833Y-13818071D01*
X8026309Y-13799024D01*
X8016786Y-13770452D01*
X8007262Y-13722833D01*
X8007262Y-13684738D01*
X8016786Y-13637119D01*
X8026309Y-13608548D01*
X8035833Y-13589500D01*
X8054881Y-13560928D01*
X8064405Y-13551405D01*
X8178690Y-13579976D02*
X8197738Y-13579976D01*
X8216786Y-13589500D01*
X8226309Y-13599024D01*
X8235833Y-13618071D01*
X8245357Y-13656167D01*
X8245357Y-13703786D01*
X8235833Y-13741881D01*
X8226309Y-13760928D01*
X8216786Y-13770452D01*
X8197738Y-13779976D01*
X8178690Y-13779976D01*
X8159643Y-13770452D01*
X8150119Y-13760928D01*
X8140595Y-13741881D01*
X8131071Y-13703786D01*
X8131071Y-13656167D01*
X8140595Y-13618071D01*
X8150119Y-13599024D01*
X8159643Y-13589500D01*
X8178690Y-13579976D01*
X8483452Y-13779976D02*
X8483452Y-13579976D01*
X8569167Y-13779976D02*
X8569167Y-13675214D01*
X8559643Y-13656167D01*
X8540595Y-13646643D01*
X8512024Y-13646643D01*
X8492976Y-13656167D01*
X8483452Y-13665690D01*
X8692976Y-13779976D02*
X8673929Y-13770452D01*
X8664405Y-13760928D01*
X8654881Y-13741881D01*
X8654881Y-13684738D01*
X8664405Y-13665690D01*
X8673929Y-13656167D01*
X8692976Y-13646643D01*
X8721548Y-13646643D01*
X8740595Y-13656167D01*
X8750119Y-13665690D01*
X8759643Y-13684738D01*
X8759643Y-13741881D01*
X8750119Y-13760928D01*
X8740595Y-13770452D01*
X8721548Y-13779976D01*
X8692976Y-13779976D01*
X8873929Y-13779976D02*
X8854881Y-13770452D01*
X8845357Y-13751405D01*
X8845357Y-13579976D01*
X9026310Y-13770452D02*
X9007262Y-13779976D01*
X8969167Y-13779976D01*
X8950119Y-13770452D01*
X8940595Y-13751405D01*
X8940595Y-13675214D01*
X8950119Y-13656167D01*
X8969167Y-13646643D01*
X9007262Y-13646643D01*
X9026310Y-13656167D01*
X9035833Y-13675214D01*
X9035833Y-13694262D01*
X8940595Y-13713309D01*
X9112024Y-13770452D02*
X9131071Y-13779976D01*
X9169167Y-13779976D01*
X9188214Y-13770452D01*
X9197738Y-13751405D01*
X9197738Y-13741881D01*
X9188214Y-13722833D01*
X9169167Y-13713309D01*
X9140595Y-13713309D01*
X9121548Y-13703786D01*
X9112024Y-13684738D01*
X9112024Y-13675214D01*
X9121548Y-13656167D01*
X9140595Y-13646643D01*
X9169167Y-13646643D01*
X9188214Y-13656167D01*
X9435833Y-13703786D02*
X9588214Y-13703786D01*
X9512024Y-13779976D02*
X9512024Y-13627595D01*
X9940595Y-13779976D02*
X9826310Y-13779976D01*
X9883452Y-13779976D02*
X9883452Y-13579976D01*
X9864405Y-13608548D01*
X9845357Y-13627595D01*
X9826310Y-13637119D01*
X10064405Y-13579976D02*
X10083452Y-13579976D01*
X10102500Y-13589500D01*
X10112024Y-13599024D01*
X10121548Y-13618071D01*
X10131071Y-13656167D01*
X10131071Y-13703786D01*
X10121548Y-13741881D01*
X10112024Y-13760928D01*
X10102500Y-13770452D01*
X10083452Y-13779976D01*
X10064405Y-13779976D01*
X10045357Y-13770452D01*
X10035833Y-13760928D01*
X10026310Y-13741881D01*
X10016786Y-13703786D01*
X10016786Y-13656167D01*
X10026310Y-13618071D01*
X10035833Y-13599024D01*
X10045357Y-13589500D01*
X10064405Y-13579976D01*
X10359643Y-13770452D02*
X10378690Y-13779976D01*
X10416786Y-13779976D01*
X10435833Y-13770452D01*
X10445357Y-13751405D01*
X10445357Y-13741881D01*
X10435833Y-13722833D01*
X10416786Y-13713309D01*
X10388214Y-13713309D01*
X10369167Y-13703786D01*
X10359643Y-13684738D01*
X10359643Y-13675214D01*
X10369167Y-13656167D01*
X10388214Y-13646643D01*
X10416786Y-13646643D01*
X10435833Y-13656167D01*
X10559643Y-13779976D02*
X10540595Y-13770452D01*
X10531071Y-13751405D01*
X10531071Y-13579976D01*
X10664405Y-13779976D02*
X10645357Y-13770452D01*
X10635833Y-13760928D01*
X10626310Y-13741881D01*
X10626310Y-13684738D01*
X10635833Y-13665690D01*
X10645357Y-13656167D01*
X10664405Y-13646643D01*
X10692976Y-13646643D01*
X10712024Y-13656167D01*
X10721548Y-13665690D01*
X10731071Y-13684738D01*
X10731071Y-13741881D01*
X10721548Y-13760928D01*
X10712024Y-13770452D01*
X10692976Y-13779976D01*
X10664405Y-13779976D01*
X10788214Y-13646643D02*
X10864405Y-13646643D01*
X10816786Y-13579976D02*
X10816786Y-13751405D01*
X10826310Y-13770452D01*
X10845357Y-13779976D01*
X10864405Y-13779976D01*
X10921548Y-13770452D02*
X10940595Y-13779976D01*
X10978690Y-13779976D01*
X10997738Y-13770452D01*
X11007262Y-13751405D01*
X11007262Y-13741881D01*
X10997738Y-13722833D01*
X10978690Y-13713309D01*
X10950119Y-13713309D01*
X10931071Y-13703786D01*
X10921548Y-13684738D01*
X10921548Y-13675214D01*
X10931071Y-13656167D01*
X10950119Y-13646643D01*
X10978690Y-13646643D01*
X10997738Y-13656167D01*
X11073929Y-13856167D02*
X11083452Y-13846643D01*
X11102500Y-13818071D01*
X11112024Y-13799024D01*
X11121548Y-13770452D01*
X11131071Y-13722833D01*
X11131071Y-13684738D01*
X11121548Y-13637119D01*
X11112024Y-13608548D01*
X11102500Y-13589500D01*
X11083452Y-13560928D01*
X11073929Y-13551405D01*
M02*
